<svg width="16" height="16" viewBox="0 0 16 16" fill="none" xmlns="http://www.w3.org/2000/svg">
<path d="M0 2.09248C0 1.53752 0.210714 1.00529 0.585786 0.612872C0.960859 0.220457 1.46957 0 2 0L14 0C14.5304 0 15.0391 0.220457 15.4142 0.612872C15.7893 1.00529 16 1.53752 16 2.09248V10.4624C16 11.0173 15.7893 11.5496 15.4142 11.942C15.0391 12.3344 14.5304 12.5549 14 12.5549H4.414C4.14881 12.5549 3.89449 12.6652 3.707 12.8614L0.854 15.8463C0.784131 15.9196 0.695051 15.9696 0.598036 15.9898C0.501021 16.0101 0.400432 15.9999 0.308999 15.9603C0.217567 15.9208 0.139402 15.8538 0.0843973 15.7677C0.0293926 15.6817 2.10149e-05 15.5805 0 15.477L0 2.09248ZM5 6.27743C5 5.99995 4.89464 5.73383 4.70711 5.53762C4.51957 5.34142 4.26522 5.23119 4 5.23119C3.73478 5.23119 3.48043 5.34142 3.29289 5.53762C3.10536 5.73383 3 5.99995 3 6.27743C3 6.5549 3.10536 6.82102 3.29289 7.01723C3.48043 7.21343 3.73478 7.32366 4 7.32366C4.26522 7.32366 4.51957 7.21343 4.70711 7.01723C4.89464 6.82102 5 6.5549 5 6.27743ZM9 6.27743C9 5.99995 8.89464 5.73383 8.70711 5.53762C8.51957 5.34142 8.26522 5.23119 8 5.23119C7.73478 5.23119 7.48043 5.34142 7.29289 5.53762C7.10536 5.73383 7 5.99995 7 6.27743C7 6.5549 7.10536 6.82102 7.29289 7.01723C7.48043 7.21343 7.73478 7.32366 8 7.32366C8.26522 7.32366 8.51957 7.21343 8.70711 7.01723C8.89464 6.82102 9 6.5549 9 6.27743ZM12 7.32366C12.2652 7.32366 12.5196 7.21343 12.7071 7.01723C12.8946 6.82102 13 6.5549 13 6.27743C13 5.99995 12.8946 5.73383 12.7071 5.53762C12.5196 5.34142 12.2652 5.23119 12 5.23119C11.7348 5.23119 11.4804 5.34142 11.2929 5.53762C11.1054 5.73383 11 5.99995 11 6.27743C11 6.5549 11.1054 6.82102 11.2929 7.01723C11.4804 7.21343 11.7348 7.32366 12 7.32366Z" fill="#B2B2B2"/>
</svg>
